<?xml version="1.0" encoding="UTF-8"?>
<svg version="1.1" xmlns="http://www.w3.org/2000/svg" width="128" height="128">
<path d="M0 0 C0.86625 0.66 1.7325 1.32 2.625 2 C3.45 2.556875 4.275 3.11375 5.125 3.6875 C13.07824325 11.04425 17.62717716 21.14248072 18.09716797 31.92016602 C18.23444676 42.17874539 15.90185483 50.76162803 9.625 59 C9.068125 59.825 8.51125 60.65 7.9375 61.5 C0.58075 69.45324325 -9.51748072 74.00217716 -20.29516602 74.47216797 C-30.55374539 74.60944676 -39.13662803 72.27685483 -47.375 66 C-48.2 65.443125 -49.025 64.88625 -49.875 64.3125 C-57.82824325 56.95575 -62.37717716 46.85751928 -62.84716797 36.07983398 C-62.98444676 25.82125461 -60.65185483 17.23837197 -54.375 9 C-53.818125 8.175 -53.26125 7.35 -52.6875 6.5 C-38.83021138 -8.48085256 -17.0488118 -10.10299958 0 0 Z M-35.8125 24.6875 C-38.09686976 29.53036389 -39.24162451 33.94797454 -37.74609375 39.21484375 C-35.63080241 43.96761132 -33.16962804 46.738383 -28.375 49 C-23.57102002 50.36365295 -19.66849 50.48746575 -15.0625 48.4375 C-10.66454759 45.86180676 -8.19166884 42.87702292 -6.77734375 37.89453125 C-5.87680913 32.81481657 -6.47555158 29.18375207 -9.0859375 24.7265625 C-12.17607888 20.58764586 -15.78666064 18.87990354 -20.75 18 C-27.1816922 17.55531302 -31.5642443 20.00352576 -35.8125 24.6875 Z " fill="#000000" transform="translate(86.375,30)"/>
<path d="M0 0 C1.30904297 0.54333984 1.30904297 0.54333984 2.64453125 1.09765625 C15.58613897 6.96213287 25.55771084 17.0307398 32.3125 29.375 C32.63814941 29.96289307 32.96379883 30.55078613 33.29931641 31.15649414 C38.07313631 40.33051986 39.54065403 49.62066398 39.4375 59.875 C39.43065186 60.9263916 39.42380371 61.9777832 39.41674805 63.06103516 C39.25207948 71.03790106 38.27122293 77.65315505 35 85 C34.63777344 85.87269531 34.27554688 86.74539062 33.90234375 87.64453125 C26.21036706 104.61902897 11.95251411 115.30081733 -4.859375 122.16796875 C-21.15000275 127.18228047 -40.5122321 125.09818754 -55.5 117.5 C-71.91873216 108.59772371 -82.60885123 94.20575147 -88.11328125 76.3984375 C-91.19627114 63.38867917 -90.58043482 47.19059274 -85 35 C-84.2884375 33.39511719 -84.2884375 33.39511719 -83.5625 31.7578125 C-76.02023746 16.34693952 -63.75955422 4.8222872 -47.5 -0.9375 C-32.53804162 -5.90797041 -14.60316769 -6.50214036 0 0 Z M-69 22 C-79.41800002 35.48211767 -84.38206089 51.30988305 -82.4375 68.25 C-80.57904846 78.65496116 -76.32668418 87.59152771 -70 96 C-69.55011719 96.61488281 -69.10023437 97.22976562 -68.63671875 97.86328125 C-58.94975998 110.16981196 -43.98897898 115.6419777 -29 118 C-14.72390378 119.35962821 -0.40445344 114.12027819 11.00390625 105.8125 C23.2548488 95.45287125 29.67906356 82.79809359 32.75 67.1875 C34.11021569 49.84475 29.36329699 34.55812766 18.046875 21.2421875 C7.04261801 9.18790599 -6.49832843 3.43505791 -22.609375 1.72265625 C-40.4065141 0.99564893 -57.21852461 8.93501428 -69 22 Z " fill="#000000" transform="translate(89,4)"/>
</svg>
