<?xml version="1.0" encoding="UTF-8"?>
<svg version="1.1" xmlns="http://www.w3.org/2000/svg" width="128" height="128">
<path d="M0 0 C0.59973633 0.25281738 1.19947266 0.50563477 1.81738281 0.76611328 C19.63931127 8.44318485 30.54539149 20.0085817 38.73828125 37.62890625 C43.77718671 51.09198801 44.74032676 69.66388732 39 83 C38.74718262 83.59973633 38.49436523 84.19947266 38.23388672 84.81738281 C30.55681515 102.63931127 18.9914183 113.54539149 1.37109375 121.73828125 C-12.09198801 126.77718671 -30.66388732 127.74032676 -44 122 C-44.59973633 121.74718262 -45.19947266 121.49436523 -45.81738281 121.23388672 C-63.63931127 113.55681515 -74.54539149 101.9914183 -82.73828125 84.37109375 C-87.77718671 70.90801199 -88.74032676 52.33611268 -83 39 C-82.74718262 38.40026367 -82.49436523 37.80052734 -82.23388672 37.18261719 C-74.55681515 19.36068873 -62.9914183 8.45460851 -45.37109375 0.26171875 C-31.90801199 -4.77718671 -13.33611268 -5.74032676 0 0 Z M-67 27 C-75.80812608 38.93517455 -79.57777819 53.2632264 -78 68 C-75.04334873 84.9701286 -67.03655811 97.85505039 -53.15234375 108.1015625 C-40.43981659 116.14313419 -25.98437325 118.91377225 -11.2109375 116.33984375 C5.17135697 112.48616756 17.89384903 103.54666526 26.9375 89.25 C34.95623335 74.33052979 36.11282614 58.70265644 31.3125 42.6015625 C26.20087796 28.57502822 16.38400436 17.50920002 3.2265625 10.4375 C-22.42521103 -0.99089305 -49.06063556 5.69346779 -67 27 Z " fill="#000000" transform="translate(86,3)"/>
</svg>
